<svg width="29" height="40" viewBox="0 0 29 40" fill="none" xmlns="http://www.w3.org/2000/svg">
<path d="M3.94027 39.0108L0.692733 39.1581C0.308913 39.1756 -0.00922307 38.864 0.000204278 38.4799L0.380378 22.9904C0.386501 22.741 0.532236 22.5161 0.757437 22.4086L22.7743 11.9007C22.9917 11.7969 23.1357 11.5834 23.1503 11.3429L23.4822 5.89056C23.5085 5.45812 23.1196 5.11714 22.6944 5.19976L1.1105 9.39277C0.725156 9.46763 0.359566 9.193 0.324125 8.80206L0.0375682 5.64112C0.00655493 5.29902 0.242081 4.98993 0.58015 4.92907L27.9018 0.0107113C28.3282 -0.0660555 28.7124 0.280346 28.68 0.712432L27.6898 13.9317C27.6725 14.1622 27.5364 14.367 27.3307 14.4722L5.27527 25.753C5.05974 25.8633 4.92148 26.0822 4.91461 26.3242L4.57268 38.3676C4.56283 38.7146 4.28698 38.9951 3.94027 39.0108Z" fill="#2563EB"/>
<circle cx="2.91528" cy="17.2053" r="2.13721" fill="#47F518"/>
</svg>
